<?xml version="1.0" encoding="UTF-8"?>
<!-- Created by Vectric (http://www.vectric.com/) -->
<svg width="150.00000000mm" height="150.00000000mm" viewBox="-75.00000000 -75.00000000 150.00000000 150.00000000" id="svg2" version="1.1" xmlns="http://www.w3.org/2000/svg" xmlns:xlink="http://www.w3.org/1999/xlink" xmlns:inkscape="http://www.inkscape.org/namespaces/inkscape">
    <g inkscape:groupmode="layer" id="85667243-1302-4a85-b3ac-c7bf39b332ec" inkscape:label="Werkzeugweg Vorschau" style="stroke:#000000;"/>
    <g inkscape:groupmode="layer" id="7dbf08dc-c7db-443b-b854-4f8cda37ffbb" inkscape:label="Layer 1" style="stroke:#000000;">
        <path style="fill:none;stroke-width:0.280000;stroke-linecap:round;stroke-linejoin:round;stroke-opacity:1;stroke:#000000;" d="M -3.597251,-1.459116 L -2.538918,-1.158515 L 26.741638,-1.496866 L 31.856915,-2.327101 L 31.856915,-2.589470 C 31.856915,-2.733774 32.569033,-2.958629 33.439399,-3.089148 C 36.243614,-3.509666 39.048866,-6.524534 40.644442,-10.832572 C 41.075617,-11.996738 41.630962,-13.266738 41.878543,-13.654794 L 42.328689,-14.360349 L 44.018201,-18.064516 C 44.947432,-20.101808 46.022522,-22.879933 46.407289,-24.238127 L 47.106867,-26.707572 L 48.293200,-31.822849 C 49.394101,-36.569760 49.480118,-37.378028 49.487668,-43.046736 L 49.495804,-49.155345 L 49.129744,-49.839335 C 48.928411,-50.215530 47.784369,-51.017682 46.587429,-51.621895 C 43.668147,-53.095544 41.887931,-53.101585 39.031296,-51.647538 C 32.557908,-48.352538 17.859912,-43.958641 10.966286,-43.257634 C 8.759397,-43.033218 6.547998,-43.454212 6.411893,-44.124676 C 6.387130,-44.246658 6.327637,-44.663961 6.279685,-45.052016 C 6.231733,-45.440072 6.104674,-46.313197 5.997332,-46.992294 C 5.889989,-47.671391 5.699465,-49.020766 5.573945,-49.990905 C 5.448424,-50.961044 4.850544,-53.024794 4.245321,-54.577016 C 3.337424,-56.905510 2.775250,-57.754106 1.031859,-59.427711 L -1.081198,-61.456183 L -1.346120,-61.456183 C -1.491827,-61.456183 -2.057939,-61.639326 -2.604147,-61.863167 C -3.150354,-62.087009 -3.756001,-62.313832 -3.950029,-62.367219 C -11.741746,-64.511124 -19.207182,-63.589854 -26.989737,-59.524010 L -28.644473,-58.659525 L -35.584807,-51.970539 L -38.522251,-50.343683 L -52.511486,-50.343683 L -53.520789,-49.215959 C -54.604500,-48.005096 -55.274061,-46.110887 -55.277228,-44.246935 C -55.282079,-41.392052 -53.049480,-38.864436 -49.927147,-38.189892 C -46.607503,-37.472721 -41.060596,-36.774852 -38.627045,-36.768201 C -36.206087,-36.761584 -34.795270,-36.343384 -33.628010,-35.286366 L -32.967102,-34.687878 L -31.017568,-27.413127 L -26.787432,-15.418683 L -26.336410,-14.448544 C -26.088348,-13.914967 -25.752120,-13.478405 -25.589236,-13.478405 C -25.426353,-13.478405 -25.293085,-13.160905 -25.293085,-12.772849 C -25.293085,-12.384794 -25.134335,-12.067294 -24.940307,-12.067294 C -24.746279,-12.067294 -24.587529,-11.897205 -24.587529,-11.689318 C -24.587529,-11.481431 -24.389091,-11.090065 -24.146557,-10.819616 C -23.049240,-9.596005 -22.823640,-9.239793 -22.823640,-8.730794 C -22.823640,-8.431564 -22.664890,-8.186738 -22.470862,-8.186738 C -22.276835,-8.186738 -22.118085,-8.029803 -22.118085,-7.837993 C -22.118085,-7.342686 -20.974968,-6.070072 -20.530062,-6.070072 C -20.324974,-6.070072 -19.928335,-5.752572 -19.648640,-5.364516 C -19.368945,-4.976461 -18.937025,-4.658961 -18.688817,-4.658961 C -18.440608,-4.658961 -18.237529,-4.500211 -18.237529,-4.306183 C -18.237529,-4.112155 -17.840654,-3.953405 -17.355585,-3.953405 C -16.870515,-3.953405 -16.473640,-3.815574 -16.473640,-3.647115 C -16.473640,-3.066273 -12.241871,-2.155789 -7.925408,-1.807924 L -3.597251,-1.459116 "/>
        <path style="fill:none;stroke-width:0.280000;stroke-linecap:round;stroke-linejoin:round;stroke-opacity:1;stroke:#000000;" d="M -44.061457,4.107063 A 13.500000,13.500000 0 0,0 -57.561457,17.607063 A 13.500000,13.500000 0 0,0 -44.061457,31.107063 A 13.500000,13.500000 0 0,0 -30.561457,17.607063 A 13.500000,13.500000 0 0,0 -44.061457,4.107063 "/>
        <path style="fill:none;stroke-width:0.280000;stroke-linecap:round;stroke-linejoin:round;stroke-opacity:1;stroke:#000000;" d="M -44.061457,14.632063 A 2.975000,2.975000 0 0,0 -47.036457,17.607063 A 2.975000,2.975000 0 0,0 -44.061457,20.582063 A 2.975000,2.975000 0 0,0 -41.086457,17.607063 A 2.975000,2.975000 0 0,0 -44.061457,14.632063 "/>
        <path style="fill:none;stroke-width:0.280000;stroke-linecap:round;stroke-linejoin:round;stroke-opacity:1;stroke:#000000;" d="M -13.577586,-14.350056 A 3.050000,3.050000 0 0,0 -16.627586,-11.300056 A 3.050000,3.050000 0 0,0 -13.577586,-8.250056 A 3.050000,3.050000 0 0,0 -10.527586,-11.300056 A 3.050000,3.050000 0 0,0 -13.577586,-14.350056 "/>
        <path style="fill:none;stroke-width:0.280000;stroke-linecap:round;stroke-linejoin:round;stroke-opacity:1;stroke:#000000;" d="M 29.695495,-12.598109 A 3.050000,3.050000 0 0,0 26.645495,-9.548109 A 3.050000,3.050000 0 0,0 29.695495,-6.498109 A 3.050000,3.050000 0 0,0 32.745495,-9.548109 A 3.050000,3.050000 0 0,0 29.695495,-12.598109 "/>
        <path style="fill:none;stroke-width:0.280000;stroke-linecap:round;stroke-linejoin:round;stroke-opacity:1;stroke:#000000;" d="M -16.030311,36.518076 A 13.500000,13.500000 0 0,0 -29.530311,50.018076 A 13.500000,13.500000 0 0,0 -16.030311,63.518076 A 13.500000,13.500000 0 0,0 -2.530311,50.018076 A 13.500000,13.500000 0 0,0 -16.030311,36.518076 "/>
        <path style="fill:none;stroke-width:0.280000;stroke-linecap:round;stroke-linejoin:round;stroke-opacity:1;stroke:#000000;" d="M -16.030311,47.043076 A 2.975000,2.975000 0 0,0 -19.005311,50.018076 A 2.975000,2.975000 0 0,0 -16.030311,52.993076 A 2.975000,2.975000 0 0,0 -13.055311,50.018076 A 2.975000,2.975000 0 0,0 -16.030311,47.043076 "/>
        <path style="fill:none;stroke-width:0.280000;stroke-linecap:round;stroke-linejoin:round;stroke-opacity:1;stroke:#000000;" d="M 13.752781,9.362903 A 13.500000,13.500000 0 0,0 0.252781,22.862903 A 13.500000,13.500000 0 0,0 13.752781,36.362903 A 13.500000,13.500000 0 0,0 27.252781,22.862903 A 13.500000,13.500000 0 0,0 13.752781,9.362903 "/>
        <path style="fill:none;stroke-width:0.280000;stroke-linecap:round;stroke-linejoin:round;stroke-opacity:1;stroke:#000000;" d="M 13.752781,19.887903 A 2.975000,2.975000 0 0,0 10.777781,22.862903 A 2.975000,2.975000 0 0,0 13.752781,25.837903 A 2.975000,2.975000 0 0,0 16.727781,22.862903 A 2.975000,2.975000 0 0,0 13.752781,19.887903 "/>
        <path style="fill:none;stroke-width:0.280000;stroke-linecap:round;stroke-linejoin:round;stroke-opacity:1;stroke:#000000;" d="M 40.382369,37.043660 A 13.500000,13.500000 0 0,0 26.882369,50.543660 A 13.500000,13.500000 0 0,0 40.382369,64.043660 A 13.500000,13.500000 0 0,0 53.882369,50.543660 A 13.500000,13.500000 0 0,0 40.382369,37.043660 "/>
        <path style="fill:none;stroke-width:0.280000;stroke-linecap:round;stroke-linejoin:round;stroke-opacity:1;stroke:#000000;" d="M 40.382369,47.568660 A 2.975000,2.975000 0 0,0 37.407369,50.543660 A 2.975000,2.975000 0 0,0 40.382369,53.518660 A 2.975000,2.975000 0 0,0 43.357369,50.543660 A 2.975000,2.975000 0 0,0 40.382369,47.568660 "/>
    </g>
</svg>
